<svg xmlns="http://www.w3.org/2000/svg" width="60" height="61" fill="none"><rect id="backgroundrect" width="100%" height="100%" x="0" y="0" fill="none" stroke="none"/>








<g class="currentLayer" style=""><title>Layer 1</title><path d="M27.72030258301232,48.277000427246094 C27.54270362976525,47.67499923706055 27.245803834233023,47.114898681640625 26.847204209599234,46.63010025024414 C26.44860267761681,46.145301818847656 25.95660400513146,45.74570083618164 25.4003028881881,45.45500183105469 L21.300302506718374,43.29199981689453 L9.857303620609976,33.16299819946289 C9.42469310883019,32.73360061645508 8.856213570866323,32.468101501464844 8.249303818974234,32.4119987487793 L9.934303284916616,16.687999725341797 C9.993603707585073,16.332599639892578 9.980603219303823,15.968899726867676 9.896233559879995,15.618599891662598 C9.811813355717398,15.26830005645752 9.65765380981896,14.938699722290039 9.442963601383902,14.649299621582031 C9.228273392948843,14.359999656677246 8.957463265690542,14.116800308227539 8.646703721317984,13.934499740600586 C8.335943223271109,13.752099990844727 7.991622926029898,13.634300231933594 7.634303094181753,13.588000297546387 C7.112223149571157,13.541099548339844 6.586313248905874,13.612799644470215 6.095773221287466,13.797499656677246 C5.60524320724938,13.9822998046875 5.162753583225943,14.275400161743164 4.801303387913443,14.654999732971191 C4.224533559117056,15.205100059509277 3.8550934803817047,15.937200546264648 3.7553033840987458,16.72800064086914 L0.08530034992430346,36.35300064086914 C-0.06420184549357755,37.152000427246094 -0.01666203763749463,37.97529983520508 0.22380134585831302,38.751800537109375 C0.464265407356955,39.52830123901367 0.8904023778769745,40.23440170288086 1.4653034222457184,40.808998107910156 L16.056303025517202,55.39099884033203 L15.541303635868765,57.099998474121094 C15.467002869877554,57.334800720214844 15.443103791508413,57.582698822021484 15.471202851567007,57.82740020751953 C15.499303818974234,58.07210159301758 15.578702927860952,58.308101654052734 15.704303742680288,58.52000045776367 C15.82430362823937,58.717201232910156 15.9849033367965,58.886600494384766 16.175403596195913,59.01689910888672 C16.365903855595327,59.147300720214844 16.582002640995718,59.235599517822266 16.809303284916616,59.2760009765625 L23.50330352905724,60.5 C23.608903886112905,60.519100189208984 23.71600341919396,60.52880096435547 23.82330322388146,60.52899932861328 C24.193803788456655,60.52199935913086 24.555503846440054,60.41510009765625 24.870203019413687,60.21950149536133 C25.184904099735952,60.02399826049805 25.441003800663687,59.747100830078125 25.611303330692984,59.417999267578125 L28.737302781376577,53.584999084472656 C28.859203339848257,53.36750030517578 28.936803818974234,53.12799835205078 28.965803147587515,52.880401611328125 C28.994802476200796,52.63269805908203 28.97460365417931,52.38180160522461 28.90630340698693,52.141998291015625 L27.72030258301232,48.277000427246094 zM23.86030388000939,58.5369987487793 L17.546302796635366,57.375 L18.011302949223257,55.834999084472656 C18.106502534184195,55.53850173950195 18.119503022465445,55.22169876098633 18.049102784428335,54.91830062866211 C17.978702546391226,54.614898681640625 17.827404023442007,54.336299896240234 17.611303330692984,54.11199951171875 L2.879303456577994,39.39400100708008 C2.5343034279677643,39.049198150634766 2.2785832894179596,38.62540054321289 2.1343033326003327,38.15950012207031 C1.9900233757827057,37.69350051879883 1.9615333092543854,37.19940185546875 2.051303387913443,36.720001220703125 L5.736303330692984,17 C5.801483155522085,16.600799560546875 6.006843568119741,16.238000869750977 6.315493584904409,15.97659969329834 C6.624143601689077,15.715299606323242 7.015863419804312,15.572500228881836 7.420303345951773,15.574000358581543 C7.909303189549185,15.628999710083008 7.9833030712935695,16.165000915527344 7.950303078922964,16.474000930786133 L6.1833033573958645,32.92300033569336 C5.699943543705679,33.21110153198242 5.2881431591841945,33.60499954223633 4.978813172611929,34.07500076293945 C4.6694931996199855,34.545101165771484 4.470673562321402,35.0791015625 4.397303582463003,35.637001037597656 C4.343153477940298,36.029998779296875 4.3774633419844875,36.43009948730469 4.497703553471304,36.808101654052734 C4.617943288120962,37.186100006103516 4.821083546910025,37.532501220703125 5.092303277287222,37.821998596191406 L13.161303521427847,47.20000076293945 C13.518903733525015,47.6953010559082 13.951803208622671,48.13159942626953 14.444303513798452,48.49300003051758 C14.707303048405386,48.68299865722656 14.931303025517202,48.875 15.134303094181753,49.04899978637695 C15.574803353581167,49.50640106201172 16.13460350159142,49.83140182495117 16.750303269657827,49.98699951171875 L17.090303422245718,48.016998291015625 C16.851102830204702,47.8838996887207 16.630603791508413,47.71979904174805 16.434303284916616,47.52899932861328 C16.19330406311486,47.323001861572266 15.927303315434195,47.09600067138672 15.619303704533316,46.874000549316406 C15.275603295597769,46.61859893798828 14.97480297211144,46.31010055541992 14.728302956852652,45.959999084472656 L6.5573034298751125,36.4630012512207 C6.484523297581411,36.378700256347656 6.4314231884810695,36.27920150756836 6.401843549046255,36.17179870605469 C6.372263432774282,36.06439971923828 6.366953374180532,35.951698303222656 6.386303426060415,35.84199905395508 C6.437783242497183,35.47460174560547 6.614373208317495,35.13629913330078 6.886303426060415,34.88399887084961 C7.048993111881948,34.7156982421875 7.245233536991812,34.583499908447266 7.462303162846304,34.49599838256836 L7.481303216252066,34.49100112915039 C7.642143250736929,34.411800384521484 7.822733403477407,34.38169860839844 8.00057315948937,34.40449905395508 C8.178402901921011,34.42720031738281 8.345593453678823,34.501800537109375 8.481303216252066,34.61899948120117 L20.0513038647506,44.86899948120117 C20.112503052983023,44.92179870605469 20.179603577885366,44.967498779296875 20.25130272034142,45.005001068115234 L24.469303132328726,47.22800064086914 C24.79110336426232,47.395599365234375 25.075403214726187,47.627201080322266 25.304603577885366,47.90850067138672 C25.533803941044546,48.18980026245117 25.70310402039025,48.51490020751953 25.802303315434195,48.86399841308594 L26.97730255249474,52.63800048828125 L23.86030388000939,58.5369987487793 z" fill="#9cb946" id="svg_1" class="" fill-opacity="1"/><path d="M42.92030334595177,22 C42.92030334595177,20.022199630737305 42.333805085453726,18.08880043029785 41.23500442627404,16.444299697875977 C40.13620376709435,14.799799919128418 38.57440185669396,13.518099784851074 36.7471046460006,12.761199951171875 C34.91990280273888,12.004300117492676 32.909202576908804,11.806300163269043 30.969404221806265,12.192099571228027 C29.029603959355093,12.57800006866455 27.24780273560021,13.530400276184082 25.84920311096642,14.928899765014648 C24.45070266846154,16.327499389648438 23.498302460942007,18.10930061340332 23.112503052983023,20.049100875854492 C22.7266025555465,21.98889923095703 22.924602509770132,23.99959945678711 23.681503297123648,25.826799392700195 C24.438404084477163,27.65410041809082 25.720104218754507,29.215900421142578 27.36460304382775,30.314699172973633 C29.009103776249624,31.41349983215332 30.942502976689077,32 32.92030334595177,32 C35.57160186890099,31.997100830078125 38.11340332153771,30.94260025024414 39.9882049572799,29.067899703979492 C41.86290359619591,27.193099975585938 42.9174041760299,24.65130043029785 42.92030334595177,22 zM32.92030334595177,30 C31.338104249272085,30 29.791303635868765,29.530799865722656 28.475704194340445,28.65180015563965 C27.16020393494103,27.7726993560791 26.134803773197866,26.523300170898438 25.52930259827111,25.061500549316406 C24.923803330692984,23.599700927734375 24.765302659306265,21.991100311279297 25.074003220829702,20.439300537109375 C25.38270378235314,18.887399673461914 26.144603730473257,17.461999893188477 27.263504029545523,16.34309959411621 C28.38230323914025,15.224300384521484 29.807703019413687,14.462400436401367 31.359603883061148,14.15369987487793 C32.91140365723107,13.845000267028809 34.52000427368615,14.003499984741211 35.98180389526818,14.609000205993652 C37.44360351685021,15.214500427246094 38.69300460937951,16.23979949951172 39.57210159424279,17.555400848388672 C40.45110321167443,18.871000289916992 40.92030334595177,20.417800903320312 40.92030334595177,22 C40.917903901371695,24.121000289916992 40.074302674565054,26.154399871826172 38.57450485352013,27.654199600219727 C37.07480239990685,29.15399932861328 35.04130172852013,29.997600555419922 32.92030334595177,30 z" fill="#9cb946" id="svg_2" class="" fill-opacity="1"/><path d="M59.21097058057785,43.65999984741211 L56.47696942090988,43.31800079345703 L58.16897076368332,41.143001556396484 C58.40326946973801,40.840301513671875 58.5193697810173,40.46260070800781 58.49547070264816,40.080501556396484 C58.47146862745285,39.69839859008789 58.30927151441574,39.33810043334961 58.038969695568085,39.06700134277344 L55.520971953868866,36.54899978637695 C55.249968230724335,36.278099060058594 54.88957089185715,36.11539840698242 54.507170379161835,36.09130096435547 C54.12486904859543,36.067100524902344 53.74677151441574,36.18330001831055 53.44396847486496,36.417999267578125 L51.26896923780441,38.11000061035156 L50.968970000743866,35.72999954223633 L51.3489710688591,35.3489990234375 C51.69386929273605,35.00419998168945 51.90087002515793,34.5452995300293 51.93107098340988,34.05849838256836 C51.96126812696457,33.571800231933594 51.81257122755051,33.09080123901367 51.512968719005585,32.70600128173828 L48.21296948194504,28.457000732421875 C48.31767147779465,28.21969985961914 48.4136683344841,27.989700317382812 48.500971496105194,27.767000198364258 L53.827971160411835,27.10300064086914 C54.31267040967941,27.044200897216797 54.75916928052902,26.809999465942383 55.08317059278488,26.444799423217773 C55.407168090343475,26.079500198364258 55.58637112379074,25.608299255371094 55.586970031261444,25.1200008392334 V18.8799991607666 C55.58576840162277,18.3927001953125 55.40666836500168,17.92259979248047 55.08326977491379,17.558000564575195 C54.7599703669548,17.19339942932129 54.3146693110466,16.959400177001953 53.830969512462616,16.899999618530273 L48.49896878004074,16.235000610351562 C48.412268340587616,16.012300491333008 48.31627148389816,15.782299995422363 48.21097058057785,15.545000076293945 L51.5109698176384,11.305000305175781 C51.81207150220871,10.91759967803955 51.96137112379074,10.433600425720215 51.93107098340988,9.943830490112305 C51.900671660900116,9.454090118408203 51.69267147779465,8.992269515991211 51.34596890211105,8.645000457763672 L46.935969054698944,4.235000133514404 C46.5911700129509,3.8901400566101074 46.13226956129074,3.6831300258636475 45.6454684138298,3.6529300212860107 C45.15877026319504,3.622730016708374 44.677771270275116,3.7714099884033203 44.292971312999725,4.071000099182129 L40.04397076368332,7.375999927520752 C39.80726879835129,7.271329879760742 39.57726925611496,7.17533016204834 39.35396832227707,7.0879998207092285 L38.68696850538254,1.7609999179840088 C38.62866848707199,1.2764300107955933 38.395170867443085,0.8299069404602051 38.03047055006027,0.5055480003356934 C37.66577023267746,0.18119008839130402 37.195070922374725,0.0013835211284458637 36.70696896314621,0 H30.26196926832199 C29.77456921339035,0.00035025711986236274 29.304369628429413,0.1795330047607422 28.940270125865936,0.5035693645477295 C28.576269805431366,0.8276050090789795 28.34376972913742,1.273959994316101 28.286970794200897,1.7580000162124634 L27.62996929883957,7.091000080108643 C27.41297024488449,7.177000045776367 27.19097012281418,7.270999908447266 26.961970031261444,7.373000144958496 L22.7919699549675,4.091000080108643 C22.403370559215546,3.7850799560546875 21.91566914319992,3.632999897003174 21.42207020521164,3.663800001144409 C20.928469359874725,3.694610118865967 20.463469207286835,3.906140089035034 20.115969359874725,4.257999897003174 L15.765969932079315,8.657999992370605 C15.42676991224289,9.0024995803833 15.223470389842987,9.457980155944824 15.19346970319748,9.940520286560059 C15.16357010602951,10.423099517822266 15.308970153331757,10.900199890136719 15.602969825267792,11.284000396728516 L18.87596958875656,15.541999816894531 C18.775969207286835,15.779999732971191 18.67597073316574,16.010000228881836 18.589970290660858,16.233999252319336 L13.336970031261444,16.899999618530273 C12.854369819164276,16.960800170898438 12.410469710826874,17.19540023803711 12.088370025157928,17.559799194335938 C11.766270339488983,17.924299240112305 11.587970435619354,18.393600463867188 11.586970031261444,18.8799991607666 V25.1200008392334 C11.587870299816132,25.605600357055664 11.765470206737518,26.074399948120117 12.086470305919647,26.43869972229004 C12.407569587230682,26.80299949645996 12.850269973278046,27.03809928894043 13.331969916820526,27.100000381469727 L18.593970000743866,27.763999938964844 C18.680969893932343,27.988000869750977 18.775969207286835,28.218000411987305 18.87996929883957,28.45599937438965 L15.606970489025116,32.71500015258789 C15.313069999217987,33.0989990234375 15.167770087718964,33.57630157470703 15.197669684886932,34.058998107910156 C15.22767037153244,34.54159927368164 15.43086975812912,34.99720001220703 15.769969642162323,35.34199905395508 L20.11896961927414,39.742000579833984 C20.466570556163788,40.09410095214844 20.931770980358124,40.30580139160156 21.42557018995285,40.33660125732422 C21.919470489025116,40.36750030517578 22.407269179821014,40.2151985168457 22.795969665050507,39.909000396728516 L26.965969741344452,36.62699890136719 C27.194969832897186,36.72700119018555 27.4169699549675,36.82699966430664 27.63397091627121,36.909000396728516 L28.28996914625168,42.237998962402344 C28.346270263195038,42.72209930419922 28.577969253063202,43.168701171875 28.94137066602707,43.49340057373047 C29.304770171642303,43.81809997558594 29.77467030286789,43.9984016418457 30.26196926832199,44 H35.20696896314621 C35.01727169752121,44.1422004699707 34.86266964673996,44.32600021362305 34.75517147779465,44.53739929199219 C34.64766949415207,44.74869918823242 34.5901705622673,44.98189926147461 34.586970031261444,45.21900177001953 V48.78099822998047 C34.587370574474335,49.16379928588867 34.72736996412277,49.53329849243164 34.98066967725754,49.8203010559082 C35.2339693903923,50.1072998046875 35.58317059278488,50.29209899902344 35.96296948194504,50.34000015258789 L38.69697064161301,50.68199920654297 L37.00496929883957,52.856998443603516 C36.77067059278488,53.159698486328125 36.654570281505585,53.53739929199219 36.678469359874725,53.919498443603516 C36.70247143507004,54.30160140991211 36.86466854810715,54.66189956665039 37.1349703669548,54.93299865722656 L39.65297192335129,57.45100021362305 C39.92426937818527,57.72129821777344 40.28457134962082,57.88359832763672 40.66676968336105,57.907798767089844 C41.04897183179855,57.93190002441406 41.42687100172043,57.81610107421875 41.72997158765793,57.582000732421875 L43.904970824718475,55.88999938964844 L44.24696987867355,58.624000549316406 C44.29487103223801,59.00379943847656 44.479670226573944,59.35300064086914 44.76666897535324,59.606300354003906 C45.0536715388298,59.85960006713867 45.42317074537277,59.99959945678711 45.805971801280975,60 H49.36796826124191 C49.750769317150116,59.99959945678711 50.120268523693085,59.85960006713867 50.40727108716965,59.606300354003906 C50.694269835948944,59.35300064086914 50.87906903028488,59.00379943847656 50.926970183849335,58.624000549316406 L51.26896923780441,55.88999938964844 L53.44396847486496,57.582000732421875 C53.74666851758957,57.81629943847656 54.12436932325363,57.93239974975586 54.50646847486496,57.90850067138672 C54.88857144117355,57.884498596191406 55.248869597911835,57.7223014831543 55.51996868848801,57.45199966430664 L58.03797024488449,54.93400192260742 C58.30866879224777,54.662899017333984 58.47127026319504,54.3025016784668 58.49537152051926,53.92020034790039 C58.51946896314621,53.537899017333984 58.403471648693085,53.1599006652832 58.16897076368332,52.856998443603516 L56.47696942090988,50.68199920654297 L59.21097058057785,50.34000015258789 C59.59076946973801,50.29209899902344 59.939970672130585,50.1072998046875 60.19327038526535,49.8203010559082 C60.446570098400116,49.53329849243164 60.58656948804855,49.16379928588867 60.586970031261444,48.78099822998047 V45.21900177001953 C60.58637112379074,44.836299896240234 60.4463717341423,44.46689987182617 60.19306820631027,44.179901123046875 C59.93976849317551,43.893001556396484 59.5906702876091,43.708099365234375 59.21097058057785,43.65999984741211 V43.65999984741211 zM29.544970214366913,36.060001373291016 C29.52187031507492,35.87310028076172 29.44647091627121,35.6963996887207 29.3273703455925,35.550498962402344 C29.208370864391327,35.40449905395508 29.05046910047531,35.29520034790039 28.871969878673553,35.23500061035156 C28.324770629405975,35.04560089111328 27.790270507335663,34.82109832763672 27.271969497203827,34.5629997253418 C27.102970778942108,34.48059844970703 26.91416996717453,34.4473991394043 26.727169692516327,34.46739959716797 C26.540270507335663,34.48740005493164 26.36266964673996,34.55970001220703 26.214970290660858,34.67599868774414 L21.54397076368332,38.3380012512207 L17.19297093153,33.9379997253418 L20.832970321178436,29.200000762939453 C20.945469558238983,29.053699493408203 21.015370070934296,28.879100799560547 21.03476971387863,28.695499420166016 C21.054169356822968,28.511999130249023 21.022370040416718,28.32659912109375 20.94297093153,28.15999984741211 C20.687470138072968,27.633800506591797 20.46537083387375,27.092100143432617 20.277970016002655,26.538000106811523 C20.21876972913742,26.35849952697754 20.10997074842453,26.199499130249023 19.964169204235077,26.079299926757812 C19.818369567394257,25.959199905395508 19.64147061109543,25.88279914855957 19.45397061109543,25.858999252319336 L13.586970031261444,25.1200008392334 V18.881999969482422 L19.45896977186203,18.142000198364258 C19.64646977186203,18.118200302124023 19.82337063550949,18.041799545288086 19.96917027235031,17.92169952392578 C20.11496990919113,17.80150032043457 20.223770797252655,17.642499923706055 20.282969176769257,17.46299934387207 C20.47036999464035,16.908899307250977 20.69246929883957,16.36720085144043 20.9479700922966,15.840999603271484 C21.02736920118332,15.674400329589844 21.059170424938202,15.48900032043457 21.039770781993866,15.305500030517578 C21.020369231700897,15.121899604797363 20.950470626354218,14.94729995727539 20.837969481945038,14.800999641418457 L17.18697041273117,10.064000129699707 L21.55497044324875,5.664000034332275 L26.20896977186203,9.32699966430664 C26.35666912794113,9.443300247192383 26.534269988536835,9.515600204467773 26.7211691737175,9.535579681396484 C26.908169448375702,9.555569648742676 27.09697026014328,9.522439956665039 27.26597088575363,9.4399995803833 C27.784269988536835,9.181870460510254 28.318770110607147,8.95740032196045 28.865969359874725,8.767999649047852 C29.044470489025116,8.707830429077148 29.2023703455925,8.598469734191895 29.32136982679367,8.452509880065918 C29.44047039747238,8.306550025939941 29.515869796276093,8.129940032958984 29.538969695568085,7.942999839782715 L30.26196926832199,2 H36.70497006177902 L37.44497174024582,7.940000057220459 C37.468168914318085,8.127470016479492 37.54387158155441,8.304550170898438 37.663569152355194,8.450730323791504 C37.783171355724335,8.59691047668457 37.94177120923996,8.706219673156738 38.12097042798996,8.765999794006348 C38.675471007823944,8.955089569091797 39.2172686457634,9.179550170898438 39.74296826124191,9.437999725341797 C39.910769164562225,9.518759727478027 40.09776943922043,9.55105972290039 40.28296917676926,9.531270027160645 C40.46806973218918,9.511489868164062 40.64406841993332,9.440389633178711 40.79096859693527,9.326000213623047 L45.52197140455246,5.645999908447266 L49.930971801280975,10.071000099182129 L46.257971465587616,14.800000190734863 C46.14356869459152,14.946900367736816 46.0724703669548,15.122900009155273 46.052668273448944,15.307999610900879 C46.03286999464035,15.493200302124023 46.0651690363884,15.68019962310791 46.1459681391716,15.847999572753906 C46.40437191724777,16.373699188232422 46.62887066602707,16.91550064086914 46.817969024181366,17.469999313354492 C46.8777682185173,17.649200439453125 46.98707073926926,17.80780029296875 47.133269011974335,17.927400588989258 C47.27947109937668,18.047100067138672 47.45646923780441,18.122800827026367 47.64396923780441,18.145999908447266 L53.586970031261444,18.8799991607666 V25.118000030517578 L47.64697140455246,25.857999801635742 C47.45947140455246,25.881200790405273 47.28237026929855,25.956899642944336 47.13627117872238,26.07659912109375 C46.99006909132004,26.196199417114258 46.88077038526535,26.354799270629883 46.82097119092941,26.534000396728516 C46.63186901807785,27.088499069213867 46.40737026929855,27.630300521850586 46.14897030591965,28.1560001373291 C46.068171203136444,28.32379913330078 46.03586834669113,28.510799407958984 46.05567044019699,28.695999145507812 C46.075468719005585,28.881099700927734 46.14657086133957,29.057100296020508 46.2609698176384,29.20400047302246 L49.939970672130585,33.935001373291016 L49.79596966505051,34.07899856567383 C49.657770812511444,34.03260040283203 49.51367062330246,34.00600051879883 49.36796826124191,34 H45.805971801280975 C45.42317074537277,34.00040054321289 45.0536715388298,34.14039993286133 44.76666897535324,34.393699645996094 C44.479670226573944,34.64699935913086 44.29487103223801,34.99620056152344 44.24696987867355,35.375999450683594 L44.01996868848801,37.1879997253418 L40.79197186231613,34.67100143432617 C40.64496868848801,34.556400299072266 40.46877163648605,34.485198974609375 40.28346890211105,34.46540069580078 C40.09807080030441,34.44559860229492 39.91086834669113,34.47800064086914 39.74296826124191,34.558998107910156 C39.2172686457634,34.81740188598633 38.675471007823944,35.041900634765625 38.12097042798996,35.23099899291992 C37.94196957349777,35.29069900512695 37.78346890211105,35.399898529052734 37.66377133131027,35.5458984375 C37.54416912794113,35.69179916381836 37.46827191114426,35.86869812011719 37.44497174024582,36.055999755859375 L37.051970183849335,39.18899917602539 C36.81207150220871,39.476600646972656 36.684870421886444,39.84159851074219 36.69396847486496,40.215999603271484 C36.6448695063591,40.310001373291016 36.61107128858566,40.41130065917969 36.593970000743866,40.51599884033203 L36.41596859693527,42 H30.275969207286835 L29.544970214366913,36.060001373291016 zM38.25897091627121,42.7599983215332 L38.69697064161301,43.323001861572266 L37.805971801280975,43.433998107910156 C38.00237149000168,43.24150085449219 38.15656918287277,43.01020050048828 38.25897091627121,42.755001068115234 V42.7599983215332 zM58.586970031261444,48.400001525878906 L55.56696957349777,48.777000427246094 C55.381071746349335,48.80030059814453 55.20537060499191,48.87540054321289 55.06006878614426,48.99359893798828 C54.91467159986496,49.111900329589844 54.805571258068085,49.268699645996094 54.744970977306366,49.44599914550781 C54.64176815748215,49.746498107910156 54.51957195997238,50.04010009765625 54.378969848155975,50.32500076293945 C54.2964693903923,50.49319839477539 54.26277035474777,50.68109893798828 54.28187054395676,50.86750030517578 C54.30097073316574,51.05379867553711 54.37206906080246,51.23109817504883 54.48697155714035,51.37900161743164 L56.356970489025116,53.77899932861328 L54.37296932935715,55.77000045776367 L51.97297161817551,53.900001525878906 C51.825068175792694,53.785099029541016 51.647768676280975,53.7140007019043 51.46147030591965,53.69490051269531 C51.27506893873215,53.67580032348633 51.08716839551926,53.70949935913086 50.91897076368332,53.79199981689453 C50.634070098400116,53.93260192871094 50.34047192335129,54.0547981262207 50.03996914625168,54.15800094604492 C49.86266964673996,54.21860122680664 49.70587033033371,54.327701568603516 49.58756893873215,54.47309875488281 C49.46937054395676,54.61840057373047 49.3942705988884,54.79410171508789 49.37097042798996,54.97999954223633 L48.98697155714035,58 H46.18696850538254 L45.80996960401535,54.97999954223633 C45.78666943311691,54.79410171508789 45.71156948804855,54.61840057373047 45.59337109327316,54.47309875488281 C45.4750697016716,54.327701568603516 45.31827038526535,54.21860122680664 45.14097088575363,54.15800094604492 C44.84047192335129,54.0547981262207 44.546869933605194,53.93260192871094 44.26196926832199,53.79199981689453 C44.09377163648605,53.70949935913086 43.90587109327316,53.67580032348633 43.71946972608566,53.69490051269531 C43.533171355724335,53.7140007019043 43.355871856212616,53.785099029541016 43.2079684138298,53.900001525878906 L40.80797070264816,55.77000045776367 L38.81696957349777,53.7859992980957 L40.68696850538254,51.38600158691406 C40.80187100172043,51.23809814453125 40.87296932935715,51.06079864501953 40.89206951856613,50.8745002746582 C40.911169707775116,50.6880989074707 40.877470672130585,50.50019836425781 40.79497021436691,50.332000732421875 C40.65437191724777,50.04710006713867 40.53217190504074,49.753501892089844 40.42896908521652,49.452999114990234 C40.3683688044548,49.275699615478516 40.25926846265793,49.118900299072266 40.11387127637863,49.0005989074707 C39.968569457530975,48.88240051269531 39.79286831617355,48.80730056762695 39.606970489025116,48.784000396728516 L36.586970031261444,48.400001525878906 V45.599998474121094 L39.606970489025116,45.222999572753906 C39.79286831617355,45.19969940185547 39.968569457530975,45.12459945678711 40.11387127637863,45.00640106201172 C40.25926846265793,44.888099670410156 40.3683688044548,44.731300354003906 40.42896908521652,44.55400085449219 C40.53217190504074,44.253501892089844 40.65437191724777,43.95989990234375 40.79497021436691,43.67499923706055 C40.877470672130585,43.50680160522461 40.911169707775116,43.31890106201172 40.89206951856613,43.13249969482422 C40.87296932935715,42.94620132446289 40.80187100172043,42.76890182495117 40.68696850538254,42.62099838256836 L38.81696957349777,40.22100067138672 L40.80097073316574,38.23699951171875 L43.20096844434738,40.106998443603516 C43.348871886730194,40.221900939941406 43.52617138624191,40.292999267578125 43.71246975660324,40.31209945678711 C43.89887112379074,40.331199645996094 44.08677166700363,40.29750061035156 44.25496929883957,40.21500015258789 C44.53986996412277,40.07440185546875 44.8334681391716,39.95220184326172 45.13397091627121,39.8489990234375 C45.31127041578293,39.78839874267578 45.46806973218918,39.679298400878906 45.58637112379074,39.53390121459961 C45.70456951856613,39.38859939575195 45.77966946363449,39.21289825439453 45.80296963453293,39.027000427246094 L46.18696850538254,36 H48.98697155714035 L49.36397045850754,39.02000045776367 C49.387270629405975,39.20589828491211 49.462370574474335,39.38159942626953 49.580568969249725,39.52690124511719 C49.69887036085129,39.672298431396484 49.85566967725754,39.78139877319336 50.03296917676926,39.84199905395508 C50.3334681391716,39.9452018737793 50.627070128917694,40.06740188598633 50.9119707942009,40.20800018310547 C51.080168426036835,40.29050064086914 51.268068969249725,40.32419967651367 51.454470336437225,40.30509948730469 C51.64076870679855,40.2859992980957 51.81806820631027,40.214900970458984 51.965971648693085,40.099998474121094 L54.365969359874725,38.22999954223633 L56.349970519542694,40.2140007019043 L54.47997158765793,42.61399841308594 C54.36506909132004,42.76190185546875 54.29397076368332,42.93920135498047 54.274870574474335,43.1254997253418 C54.25577038526535,43.3119010925293 54.28946942090988,43.49980163574219 54.37196987867355,43.667999267578125 C54.512568175792694,43.95289993286133 54.634768187999725,44.246498107910156 54.737971007823944,44.547000885009766 C54.79857128858566,44.724300384521484 54.90767163038254,44.881099700927734 55.053068816661835,44.9994010925293 C55.19837063550949,45.11759948730469 55.37407177686691,45.19269943237305 55.55996960401535,45.215999603271484 L58.586970031261444,45.599998474121094 V48.400001525878906 z" fill="#9cb946" id="svg_3" class="" fill-opacity="1"/><path d="M46.92030334595177,41 C45.733604432377554,41 44.573604584965445,41.351898193359375 43.58690261963341,42.011199951171875 C42.60020446899865,42.670501708984375 41.83120346191857,43.60749816894531 41.37700271728966,44.70389938354492 C40.92290496948693,45.80030059814453 40.80410385254357,47.00669860839844 41.03560257080529,48.170501708984375 C41.26710510376427,49.33440017700195 41.838504792484976,50.403499603271484 42.677703858647085,51.24259948730469 C43.51680374268029,52.0817985534668 44.58590316894982,52.6531982421875 45.7498016369674,52.884700775146484 C46.913604737553335,53.1161994934082 48.12000274780724,52.997398376464844 49.21640396240685,52.54330062866211 C50.31280517700646,52.08919906616211 51.2498016369674,51.320098876953125 51.9091033947799,50.33340072631836 C52.5684051525924,49.34669876098633 52.92030334595177,48.18669891357422 52.92030334595177,47 C52.918704987797476,45.40919876098633 52.286102296147085,43.88399887084961 51.16120147827599,42.75910186767578 C50.03630447510216,41.63420104980469 48.511104584965445,41.0015983581543 46.92030334595177,41 V41 zM46.92030334595177,51 C46.12920379761193,51 45.355804444584585,50.76539993286133 44.698001862797476,50.32590103149414 C44.04020309570763,49.88639831542969 43.527503968510366,49.261600494384766 43.22480392578576,48.53070068359375 C42.92200470093224,47.799800872802734 42.842803956303335,46.995601654052734 42.99720382812951,46.219600677490234 C43.15150451782677,45.44369888305664 43.5325050366256,44.73099899291992 44.09190368774865,44.171600341796875 C44.651302338871695,43.61220169067383 45.36400222900841,43.231201171875 46.13990402344201,43.076900482177734 C46.91590500000451,42.92250061035156 47.72010421875451,43.00170135498047 48.45100402954552,43.304500579833984 C49.18190384033654,43.607200622558594 49.80670166138146,44.11989974975586 50.24620437744591,44.7776985168457 C50.6857032788131,45.43550109863281 50.92030334595177,46.208900451660156 50.92030334595177,47 C50.92030334595177,48.0609016418457 50.498905183109976,49.07830047607422 49.7487030041549,49.828399658203125 C48.99860382202599,50.5786018371582 47.981204987797476,51 46.92030334595177,51 z" fill="#9cb946" id="svg_4" class="" fill-opacity="1"/><path d="M53.09930420044396,6.571000099182129 C53.60040283325646,7.320519924163818 53.93610382202599,8.168180465698242 54.08400344971154,9.057559967041016 C54.23200225952599,9.946929931640625 54.188804627690054,10.857600212097168 53.95730209473107,11.729000091552734 L55.883304597172476,12.270999908447266 C56.18950271728966,11.114800453186035 56.246002198490835,9.906720161437988 56.049102784428335,8.727020263671875 C55.852203370365835,7.547309875488281 55.406402589115835,6.4230499267578125 54.741302491459585,5.428999900817871 C54.078304291996695,4.496560096740723 53.22980499390099,3.711239814758301 52.248905183109976,3.1223599910736084 C51.268001557621695,2.5334699153900146 50.17590332153771,2.1537399291992188 49.04130172852013,2.006999969482422 L48.8013038647506,3.993000030517578 C49.654903413090445,4.109539985656738 50.47590255859826,4.3981099128723145 51.21470260742638,4.841239929199219 C51.95350265625451,5.284369945526123 52.59460449341271,5.872829914093018 53.09930420044396,6.571000099182129 V6.571000099182129 z" fill="#9cb946" id="svg_5" class="" fill-opacity="1"/><path d="M57.09930420044396,4.571000099182129 C57.60040283325646,5.320519924163818 57.93610382202599,6.168179988861084 58.08400344971154,7.057559967041016 C58.23200225952599,7.946929931640625 58.188804627690054,8.857620239257812 57.95730209473107,9.729000091552734 L59.883304597172476,10.270999908447266 C60.18950271728966,9.114830017089844 60.246002198490835,7.906720161437988 60.049102784428335,6.727020263671875 C59.852203370365835,5.547309875488281 59.406402589115835,4.4230499267578125 58.741302491459585,3.428999900817871 C58.078304291996695,2.4965600967407227 57.22980499390099,1.7112394571304321 56.248905183109976,1.1223599910736084 C55.268001557621695,0.5334737300872803 54.17590332153771,0.1537410020828247 53.04130172852013,0.006999969948083162 L52.8013038647506,1.9930000305175781 C53.654903413090445,2.1095399856567383 54.47590255859826,2.3981099128723145 55.21470260742638,2.8412399291992188 C55.95350265625451,3.284369945526123 56.59460449341271,3.8728299140930176 57.09930420044396,4.571000099182129 V4.571000099182129 z" fill="#9cb946" id="svg_6" class="" fill-opacity="1"/><path d="M11.099303246769644,5.428999900817871 C10.434203149113394,6.4230499267578125 9.98840332153771,7.547309875488281 9.791473389897085,8.727020263671875 C9.594573022160269,9.906720161437988 9.651093484196402,11.114800453186035 9.957303048405386,12.270999908447266 L11.88330364349816,11.729000091552734 C11.651803017887808,10.857600212097168 11.608603478703237,9.946929931640625 11.756603242192007,9.057559967041016 C11.904502869877554,8.168180465698242 12.240202904972769,7.320519924163818 12.741303445133902,6.571000099182129 C13.246203423771597,5.872610092163086 13.887702943119741,5.28400993347168 14.626803399357534,4.840869903564453 C15.366003037724234,4.397729873657227 16.187402726444937,4.109280109405518 17.041303635868765,3.993000030517578 L16.8013038647506,2.006999969482422 C15.666303635868765,2.153480052947998 14.57390308502648,2.533090114593506 13.59260368469689,3.1219799518585205 C12.611303330692984,3.7108700275421143 11.762503625187612,4.496330261230469 11.099303246769644,5.428999900817871 V5.428999900817871 z" fill="#9cb946" id="svg_7" class="" fill-opacity="1"/><path d="M7.883303643498159,9.729000091552734 C7.6518235218856105,8.857620239257812 7.60861349228356,7.946929931640625 7.756553174290396,7.057559967041016 C7.904503346714712,6.168179988861084 8.240193368229605,5.320519924163818 8.741303445133902,4.571000099182129 C9.246223450932241,3.872610092163086 9.887693406376577,3.2840099334716797 10.626803399357534,2.840869903564453 C11.366003037724234,2.3977301120758057 12.187403680119253,2.1092801094055176 13.041303635868765,1.9930000305175781 L12.801302911076284,0.006999969948083162 C11.666703225407339,0.1537410020828247 10.574603081974722,0.5334737300872803 9.593703271183706,1.1223599910736084 C8.612812997135855,1.7112394571304321 7.7642431271407375,2.4965600967407227 7.101303578648306,3.428999900817871 C6.436203480992056,4.4230499267578125 5.990373135838247,5.547309875488281 5.793473244938589,6.727020263671875 C5.596563340458609,7.906720161437988 5.6530933392379055,9.114830017089844 5.959303380284048,10.270999908447266 L7.883303643498159,9.729000091552734 z" fill="#9cb946" id="svg_8" class="" fill-opacity="1"/></g></svg>