<svg xmlns="http://www.w3.org/2000/svg" width="73" height="44" fill="none"><rect id="backgroundrect" width="100%" height="100%" x="0" y="0" fill="none" stroke="none"/>






<g class="currentLayer" style=""><title>Layer 1</title><path d="M70.8975 20.189H66.1751L63.4046 11.5122C62.7601 9.09849 61.5059 8.59145 60.5693 8.59145H47.3616V0.993389C47.3616 0.444938 46.9629 0 46.4714 0H0.890224C0.39873 0 0 0.444938 0 0.993389V6.99276V12.1771V35.274C0 35.8224 0.39873 36.2674 0.890224 36.2674H7.36723C7.81554 40.6071 11.0898 44 15.097 44C19.1042 44 22.3785 40.6071 22.8268 36.2674H46.4712H51.3486C51.7969 40.6071 55.0711 44 59.0784 44C63.0856 44 66.3598 40.6071 66.8081 36.2674H70.8973C72.0566 36.2674 73 35.2144 73 33.921V22.5356C73.0002 21.242 72.0566 20.189 70.8975 20.189ZM1.78045 7.98615H37.9746L36.1917 11.1837H1.78045V7.98615ZM15.0972 42.0132C11.768 42.0132 9.0578 38.9889 9.0578 35.274C9.0578 31.559 11.768 28.5348 15.0972 28.5348C18.4263 28.5348 21.1365 31.559 21.1365 35.274C21.1363 38.9889 18.4263 42.0132 15.0972 42.0132ZM45.581 34.2806H22.8269C22.3786 29.9408 19.1044 26.548 15.0972 26.548C11.0899 26.548 7.81569 29.9408 7.36738 34.2806H1.78045V13.1705H36.6856C36.994 13.1705 37.2791 12.9945 37.4414 12.7023L40.3324 7.51796C40.504 7.21014 40.5109 6.82459 40.3555 6.51167C40.1978 6.19604 39.8989 5.99937 39.5766 5.99937H1.78045V1.98695H45.581V34.2806ZM59.0785 42.0132C55.7494 42.0132 53.0392 38.9889 53.0392 35.274C53.0392 31.559 55.7494 28.5348 59.0785 28.5348C62.4076 28.5348 65.1179 31.559 65.1179 35.274C65.1177 38.9889 62.4076 42.0132 59.0785 42.0132ZM71.2197 27.2982H70.2576C69.9028 27.2982 69.6131 26.905 69.6131 26.4238C69.6131 25.9425 69.9029 25.5493 70.2576 25.5493H71.2197V27.2982ZM71.2197 23.5625H70.2576C68.9199 23.5625 67.8326 24.8458 67.8326 26.4238C67.8326 28.0017 68.9199 29.285 70.2576 29.285H71.2197V33.9208C71.2197 34.1201 71.076 34.2804 70.8975 34.2804H66.8083C66.36 29.9407 63.0857 26.5478 59.0785 26.5478C55.0713 26.5478 51.797 29.9407 51.3487 34.2804H47.3616V10.5784H60.5693C60.7686 10.5784 61.2972 10.5784 61.7122 12.1306L64.7076 21.5162C64.8352 21.9121 65.1712 22.176 65.5468 22.176H70.8976C71.0762 22.176 71.2199 22.3363 71.2199 22.5356V23.5625H71.2197Z" fill="#9cb946" id="svg_1" class="" fill-opacity="1"/><path d="M15.0972 31.5124C13.2378 31.5124 11.7263 33.1991 11.7263 35.274C11.7263 37.3488 13.2379 39.0354 15.0972 39.0354C16.9564 39.0354 18.468 37.3487 18.468 35.274C18.468 33.1991 16.9564 31.5124 15.0972 31.5124ZM15.0972 37.0486C14.2208 37.0486 13.5068 36.2518 13.5068 35.274C13.5068 34.296 14.2209 33.4993 15.0972 33.4993C15.9735 33.4993 16.6875 34.296 16.6875 35.274C16.6875 36.2519 15.9734 37.0486 15.0972 37.0486Z" fill="#9cb946" id="svg_2" class="" fill-opacity="1"/><path d="M59.0785 31.5124C57.2216 31.5124 55.71 33.1991 55.71 35.274C55.71 37.3488 57.2216 39.0354 59.0785 39.0354C60.9379 39.0354 62.4493 37.3487 62.4493 35.274C62.4493 33.1991 60.9377 31.5124 59.0785 31.5124ZM59.0785 37.0486C58.2021 37.0486 57.4904 36.2518 57.4904 35.274C57.4904 34.296 58.2021 33.4993 59.0785 33.4993C59.9549 33.4993 60.6689 34.296 60.6689 35.274C60.6689 36.2519 59.9547 37.0486 59.0785 37.0486Z" fill="#9cb946" id="svg_3" class="" fill-opacity="1"/><path d="M59.5121 12.7074C59.3846 12.3142 59.0507 12.0503 58.6751 12.0503H50.7069C50.2154 12.0503 49.8166 12.4953 49.8166 13.0437V20.1943C49.8166 20.7427 50.2154 21.1877 50.7069 21.1877H60.9841C61.274 21.1877 61.5451 21.0299 61.7121 20.766C61.8791 20.4996 61.9207 20.1607 61.8211 19.858L59.5121 12.7074ZM51.5972 19.2009V14.0373H58.0492L59.716 19.2009H51.5972Z" fill="#9cb946" id="svg_4" class="" fill-opacity="1"/><path d="M53.9409 23.5625H52.0352C51.5437 23.5625 51.145 24.0075 51.145 24.5559C51.145 25.1044 51.5437 25.5493 52.0352 25.5493H53.9409C54.4324 25.5493 54.8312 25.1044 54.8312 24.5559C54.8313 24.0075 54.4324 23.5625 53.9409 23.5625Z" fill="#9cb946" id="svg_5" class="" fill-opacity="1"/><path d="M38.8046 16.3034H4.19152C3.70003 16.3034 3.3013 16.7483 3.3013 17.2968C3.3013 17.8452 3.70003 18.2901 4.19152 18.2901H38.8044C39.2959 18.2901 39.6946 17.8452 39.6946 17.2968C39.6946 16.7483 39.296 16.3034 38.8046 16.3034Z" fill="#9cb946" id="svg_6" class="" fill-opacity="1"/></g></svg>