<svg xmlns="http://www.w3.org/2000/svg" width="46" height="63" fill="none" style=""><rect id="backgroundrect" width="100%" height="100%" x="0" y="0" fill="none" stroke="none"/>








<g class="currentLayer" style=""><title>Layer 1</title><path d="M22.9981 46.0003C10.3169 46.0003 0 35.6815 0 22.9981C0 10.3169 10.3169 0 22.9981 0C29.1259 0 34.8976 2.39649 39.2501 6.7479C43.603 11.0997 46.0001 16.8707 46 22.9981C46 35.6815 35.6813 46.0003 22.9981 46.0003ZM22.9981 1.85364C11.339 1.85364 1.85364 11.339 1.85364 22.9981C1.85364 34.6593 11.339 44.1466 22.9981 44.1466C34.6593 44.1466 44.1464 34.6594 44.1464 22.9981C44.1464 17.3659 41.9421 12.0604 37.9395 8.05882C33.9371 4.05735 28.6308 1.85364 22.9981 1.85364Z" fill="#9cb946" id="svg_1" class="" fill-opacity="1"/><path d="M12.6414 43.4253C12.5428 43.4253 12.4424 43.4094 12.3438 43.3759C11.8589 43.2116 11.5993 42.6853 11.7636 42.2006L14.5902 33.864C14.64 33.7173 14.7257 33.5854 14.8397 33.4804L16.6202 31.8382L12.983 30.5208C12.838 30.4684 12.7084 30.3805 12.6059 30.2651L9.96012 27.289L5.34324 25.8171C4.95887 25.6945 4.69791 25.3374 4.69791 24.9341V20.7099C4.69791 20.4717 4.78966 20.2427 4.95397 20.0703L10.871 13.8656C11.0234 13.7057 11.228 13.6056 11.4478 13.5832L13.3372 13.3907L13.2943 11.6452C13.2883 11.4009 13.379 11.1642 13.5468 10.9864L14.5374 9.93642L14.4177 7.94496C14.3922 7.5206 14.6586 7.13346 15.064 7.00543L17.5316 6.2269C17.9702 6.08867 18.4445 6.29297 18.6448 6.70726L19.2095 7.87505L23.3787 4.70559L22.5083 1.2242C22.3841 0.727686 22.6861 0.224424 23.1826 0.10023C23.6795 -0.0244934 24.1825 0.278047 24.3066 0.774557L25.3252 4.84872C25.4151 5.20832 25.282 5.587 24.9869 5.81142L19.4292 10.0364C19.2079 10.2047 18.9229 10.2648 18.6522 10.1998C18.3819 10.135 18.1549 9.95231 18.0339 9.70194L17.3249 8.23571L16.3113 8.55546L16.4117 10.2252C16.4271 10.4805 16.3362 10.7308 16.1607 10.9169L15.1567 11.9809L15.2112 14.2027C15.2231 14.6868 14.8603 15.0984 14.3785 15.1475L11.9761 15.3923L6.55128 21.0808V24.2566L10.765 25.5999C10.9235 25.6505 11.0655 25.7428 11.1761 25.8672L13.8347 28.8578L18.6844 30.6144C18.9887 30.7247 19.2135 30.9855 19.2774 31.3029C19.3412 31.6201 19.2351 31.9477 18.9971 32.1671L16.2695 34.6828L13.5187 42.7957C13.3882 43.1819 13.0276 43.4253 12.6414 43.4253Z" fill="#9cb946" id="svg_2" class="" fill-opacity="1"/><path d="M34.6116 37.5755C34.3912 37.5755 34.1743 37.4968 34.003 37.3477L30.7689 34.5329C30.5409 34.3344 30.4241 34.0373 30.4556 33.7366L31.0239 28.3414L26.5156 26.4219C26.3676 26.3589 26.2385 26.2584 26.1412 26.1303L21.4261 19.9337C21.1826 19.6137 21.1732 19.1734 21.4027 18.8433L24.6177 14.2207L23.3052 13.9429C23.0185 13.8823 22.7774 13.6895 22.655 13.4232C22.5327 13.157 22.5434 12.8485 22.684 12.5914L24.7282 8.85416C24.8804 8.57585 25.1644 8.39472 25.481 8.37407L27.9685 8.21161L28.285 5.99771C28.3244 5.72297 28.4847 5.48014 28.7221 5.33635L32.9704 2.76112C33.4082 2.49565 33.978 2.63547 34.2434 3.0732C34.5088 3.51092 34.3689 4.08078 33.9314 4.34611L30.058 6.69401L29.6971 9.21853C29.635 9.65242 29.2774 9.98356 28.8399 10.0123L26.1101 10.1906L24.9084 12.3875L26.3681 12.6964C26.672 12.7606 26.9234 12.9728 27.0379 13.2617C27.1523 13.5505 27.1145 13.8773 26.9372 14.1324L23.3097 19.348L27.4677 24.8125L32.3805 26.9044C32.7552 27.0639 32.9818 27.4492 32.9393 27.8542L32.3497 33.4511L34.0158 34.9012L34.7211 31.374C34.7761 31.0995 34.952 30.8645 35.1999 30.7348L39.5084 28.4781L39.3727 25.9382C39.3603 25.7065 39.4355 25.4784 39.583 25.2994L42.222 22.0971C42.8354 21.3502 43.5752 19.3168 43.8082 18.5963C43.9656 18.1094 44.4874 17.8422 44.9752 17.9997C45.4622 18.1572 45.7292 18.6795 45.5719 19.1666C45.4753 19.4657 44.6001 22.1221 43.6534 23.2748L41.243 26.1996L41.3913 28.9734C41.4106 29.3355 41.2171 29.6757 40.8959 29.8438L36.452 32.1715L35.5203 36.8303C35.4556 37.1542 35.2232 37.4191 34.9106 37.5257C34.8129 37.5592 34.7119 37.5755 34.6116 37.5755Z" fill="#9cb946" id="svg_3" class="" fill-opacity="1"/><path d="M35.6298 24.3343C35.4517 24.3343 35.2728 24.2832 35.1159 24.1786L32.0604 22.1416C31.8685 22.0137 31.7313 21.8189 31.6753 21.5953L30.6568 17.5211C30.5972 17.2826 30.6346 17.0303 30.7611 16.8195L33.8167 11.7268C33.9979 11.4249 34.3352 11.2514 34.6855 11.2798C35.0365 11.3078 35.3413 11.5325 35.472 11.8593L37.4734 16.8625L39.4568 19.8379C39.7018 20.2054 39.6534 20.6949 39.3411 21.0074L36.2855 24.063C36.1062 24.242 35.8689 24.3343 35.6298 24.3343ZM33.3866 20.7981L35.512 22.2149L37.493 20.2338L35.8775 17.8104C35.8419 17.757 35.812 17.7001 35.7882 17.6405L34.4448 14.2825L32.548 17.4439L33.3866 20.7981Z" fill="#9cb946" id="svg_4" class="" fill-opacity="1"/><path d="M23.4353 62.7589C22.9234 62.7589 22.5085 62.3439 22.5085 61.8321V45.0734C22.5085 44.5616 22.9234 44.1466 23.4353 44.1466C23.9471 44.1466 24.3621 44.5616 24.3621 45.0734V61.8321C24.3621 62.3439 23.9471 62.7589 23.4353 62.7589Z" fill="#9cb946" id="svg_5" class="" fill-opacity="1"/><path d="M26.0833 56.1387H23.4353C22.9234 56.1387 22.5085 55.7238 22.5085 55.2119C22.5085 51.7806 25.3 48.989 28.7314 48.989H31.3794C31.8913 48.989 32.3062 49.4039 32.3062 49.9158C32.3062 53.3472 29.5147 56.1387 26.0833 56.1387ZM24.461 54.2851H26.0833C28.1746 54.2851 29.9275 52.8083 30.3537 50.8426H28.7314C26.6401 50.8426 24.8872 52.3194 24.461 54.2851Z" fill="#9cb946" id="svg_6" class="" fill-opacity="1"/><path d="M23.4353 56.1387H20.7872C17.3559 56.1387 14.5643 53.3472 14.5643 49.9158C14.5643 49.4039 14.9793 48.989 15.4911 48.989H18.1392C21.5705 48.989 24.3621 51.7806 24.3621 55.2119C24.3621 55.7238 23.9471 56.1387 23.4353 56.1387ZM16.5168 50.8426C16.943 52.8083 18.6959 54.2851 20.7872 54.2851H22.4096C21.9834 52.3194 20.2305 50.8426 18.1392 50.8426H16.5168Z" fill="#9cb946" id="svg_7" class="" fill-opacity="1"/><path d="M32.7035 62.7589H14.1671C13.6552 62.7589 13.2403 62.3439 13.2403 61.832C13.2403 61.3202 13.6552 60.9052 14.1671 60.9052H32.7035C33.2153 60.9052 33.6303 61.3202 33.6303 61.832C33.6303 62.3439 33.2153 62.7589 32.7035 62.7589Z" fill="#9cb946" id="svg_8" class="" fill-opacity="1"/></g></svg>