<svg width="21" height="20" viewBox="0 0 21 20" fill="none" xmlns="http://www.w3.org/2000/svg">
<path d="M16 14.375H6.35116C6.20479 14.375 6.06306 14.3236 5.95069 14.2298C5.83831 14.1361 5.76242 14.0058 5.73623 13.8618L3.65013 2.3882C3.62394 2.24419 3.54805 2.11394 3.43568 2.02016C3.3233 1.92637 3.18158 1.875 3.03521 1.875H1.625" stroke="#E5A598" stroke-width="1.5" stroke-linecap="round" stroke-linejoin="round"/>
<path d="M6.625 17.5C7.48794 17.5 8.1875 16.8004 8.1875 15.9375C8.1875 15.0746 7.48794 14.375 6.625 14.375C5.76205 14.375 5.0625 15.0746 5.0625 15.9375C5.0625 16.8004 5.76205 17.5 6.625 17.5Z" stroke="#E5A598" stroke-width="1.5" stroke-linecap="round" stroke-linejoin="round"/>
<path d="M16 17.5C16.8629 17.5 17.5625 16.8004 17.5625 15.9375C17.5625 15.0746 16.8629 14.375 16 14.375C15.1371 14.375 14.4375 15.0746 14.4375 15.9375C14.4375 16.8004 15.1371 17.5 16 17.5Z" stroke="#E5A598" stroke-width="1.5" stroke-linecap="round" stroke-linejoin="round"/>
<path d="M4.125 5H17.7511C17.8427 5 17.9331 5.02011 18.016 5.05891C18.0989 5.09771 18.1723 5.15425 18.231 5.22453C18.2896 5.29482 18.3321 5.37713 18.3555 5.46565C18.3788 5.55417 18.3824 5.64673 18.366 5.7368L17.3433 11.3618C17.3171 11.5058 17.2412 11.6361 17.1289 11.7298C17.0165 11.8236 16.8748 11.875 16.7284 11.875H5.375" stroke="#E5A598" stroke-width="1.5" stroke-linecap="round" stroke-linejoin="round"/>
</svg>
